<svg width="130" height="49" viewBox="0 0 130 49" fill="none" xmlns="http://www.w3.org/2000/svg">
<g clip-path="url(#clip0_23317_275365)">
<rect width="130" height="49" fill="white"/>
<g clip-path="url(#clip1_23317_275365)">
<path d="M27.8265 41C36.5839 41 43.6832 33.9082 43.6832 25.16C43.6832 16.4118 36.5839 9.32001 27.8265 9.32001C19.0691 9.32001 11.9698 16.4118 11.9698 25.16C11.9698 33.9082 19.0691 41 27.8265 41Z" fill="#E94335"/>
<path fill-rule="evenodd" clip-rule="evenodd" d="M27.2181 28.4469C26.4213 28.4469 25.6572 28.1307 25.0938 27.5679C24.5303 27.005 24.2138 26.2417 24.2138 25.4458C24.2138 24.6498 24.5303 23.8865 25.0938 23.3237C25.6572 22.7609 26.4213 22.4447 27.2181 22.4447C28.0148 22.4447 28.779 22.7609 29.3424 23.3237C29.9058 23.8865 30.2223 24.6498 30.2223 25.4458C30.2223 26.2417 29.9058 27.005 29.3424 27.5679C28.779 28.1307 28.0148 28.4469 27.2181 28.4469ZM31.7872 18.0799H31.2863L30.9972 19.4013C30.2163 17.847 27.8931 17.6883 26.6384 17.6883C22.7367 17.6883 19.3359 21.4362 19.3359 26.5918C19.3359 30.7389 21.815 33.3438 24.9252 33.3438C26.6611 33.3438 28.1368 32.9371 29.3551 31.4903L29.0388 32.9447H33.9424L36.1839 18.0874L31.7872 18.0799Z" fill="white"/>
<path d="M52.2433 21.3349H49.9489L50.521 17.5628H52.8094L53.0667 16.0766C53.61 12.7051 55.7258 10.1909 59.8455 10.1909C60.8512 10.1832 61.8529 10.3176 62.821 10.59L62.2156 14.3621C61.625 14.2199 61.0205 14.1433 60.4131 14.1339C58.7482 14.1339 57.8099 14.9336 57.5814 16.3336L57.3816 17.5628H61.2243L60.6809 21.3349H56.8201L54.9888 33.3922H50.412L52.2433 21.3349Z" fill="#212124"/>
<path d="M60.9398 26.4496C60.9398 21.3349 64.8006 17.1621 69.9495 17.1621C74.3264 17.1621 77.4729 20.2207 77.4729 24.5628C77.4729 29.6488 73.6106 33.7929 68.4042 33.7929C64.2285 33.7929 60.9398 30.7918 60.9398 26.4496ZM73.0097 24.844C73.0097 22.7017 71.6945 21.273 69.7209 21.273C67.1753 21.273 65.4302 23.5589 65.4302 26.1881C65.4302 28.3047 66.7167 29.7017 68.719 29.7017C71.2087 29.7062 73.0097 27.449 73.0097 24.844Z" fill="#212124"/>
<path d="M79.1892 26.4496C79.1892 21.3349 83.0501 17.1621 88.1989 17.1621C92.5759 17.1621 95.7224 20.2207 95.7224 24.5628C95.7224 29.6488 91.86 33.7929 86.6552 33.7929C82.478 33.7929 79.1892 30.7918 79.1892 26.4496ZM91.2667 24.844C91.2667 22.7017 89.9515 21.273 87.978 21.273C85.4323 21.273 83.6873 23.5589 83.6873 26.1881C83.6873 28.3047 84.9737 29.7017 86.976 29.7017C89.4581 29.7062 91.2667 27.449 91.2667 24.844Z" fill="#212124"/>
<path d="M112.542 33.3922H108.594L108.566 30.9067C107.193 32.792 105.419 33.7929 103.388 33.7929C100.127 33.7929 97.3812 31.1063 97.3812 26.6779C97.3812 21.1913 101.328 17.1622 105.251 17.1622C107.34 17.1622 109.2 18.2764 110.001 19.9909L111.46 10.4479H116.035L112.542 33.3922ZM101.958 26.2198C101.958 28.4211 103.273 29.7062 105.136 29.7062C107.596 29.7062 109.427 27.5065 109.427 24.906C109.427 22.7062 108.196 21.2775 106.165 21.2775C103.703 21.2775 101.958 23.5922 101.958 26.2198Z" fill="#212124"/>
</g>
</g>
<defs>
<clipPath id="clip0_23317_275365">
<rect width="130" height="49" fill="white"/>
</clipPath>
<clipPath id="clip1_23317_275365">
<rect width="104.06" height="31.68" fill="white" transform="translate(11.9698 9.32001)"/>
</clipPath>
</defs>
</svg>
