<?xml version="1.0" encoding="utf-8"?>
<svg version="1.1" xmlns="http://www.w3.org/2000/svg" xmlns:xlink="http://www.w3.org/1999/xlink" x="0px" y="0px"
	 width="120px" height="47px" viewBox="0 0 120 47" enable-background="new 0 0 120 47" xml:space="preserve">
<title>Grab</title>
<desc>Grab's Logo</desc>
<path fill="#33C066" d="M96.3,14.1c0.7-0.5,1.3-0.9,2.1-1.3V0.6h-3.2V15C95.5,14.7,95.9,14.4,96.3,14.1 M93.2,16.5V0.6H90v18.8
	C91,18.4,92.1,17.5,93.2,16.5 M104.9,18.7c-2.8,0-5.4,1.2-7.2,3.2l0,0c-2.4,2.3-7.1,7.7-10.6,12.2v5.2c0.3-0.4,0.5-0.7,0.8-1.1l0,0
	c0.2-0.3,2.9-3.8,5.9-7.4c0.5-0.6,1-1.2,1.5-1.8v0c1.8-2.1,3.6-4.1,5-5.2c1.2-1.2,2.8-1.9,4.6-1.9c3.5,0,6.4,2.8,6.4,6.3v2.6
	c0,3.5-2.9,6.3-6.4,6.3c-3.5,0-6.4-2.8-6.4-6.3v-2.1c-1,1.1-2.1,2.3-3.1,3.6c0.7,4.6,4.7,8,9.5,8c5.3,0,9.6-4.3,9.6-9.5v-2.6
	C114.5,22.9,110.2,18.7,104.9,18.7 M97.6,15.7c-3.2,2.4-5.8,4.8-7.9,7c-0.9,1.1-1.8,2.1-2.5,3.1v5.2c3-4.3,7-9.1,10.8-11.9
	c2-1.5,4.5-2.4,7-2.4c6.3,0,11.5,5.1,11.5,11.4v2.6c0,6.3-5.2,11.4-11.5,11.4c-5.2,0-9.6-3.4-11-8.1c-0.9,1.1-1.7,2-2.3,2.9
	c2.4,4.9,7.4,8.4,13.3,8.4c8.1,0,14.7-6.5,14.7-14.5v-2.6c0-8-6.6-14.5-14.7-14.5C102.2,13.6,99.2,14.6,97.6,15.7z"/>
<path fill="#33C066" d="M70.5,18.7c-5.3,0-9.6,4.2-9.6,9.5v2.6c0,5.2,4.3,9.5,9.6,9.5c1.6,0,3.1-0.4,4.5-1.1v-3.7
	c-1.2,1-2.7,1.6-4.5,1.6c-3.5,0-6.4-2.8-6.4-6.3v-2.6c0-3.5,2.9-6.3,6.4-6.3c3.5,0,6.4,2.8,6.4,6.3v2.6c0,0.1,0,0.3,0,0.4h0v6.6l0,0
	v2.4v0l0,3.6h0v1.5h3.2V30.7v-2.6C80.1,22.9,75.8,18.7,70.5,18.7 M85.2,27.6c-0.3-7.8-6.8-14-14.7-14c-8.1,0-14.7,6.5-14.7,14.5v2.6
	c0,8,6.6,14.5,14.7,14.5c1.5,0,3-0.2,4.5-0.7v-3.4c-1.4,0.6-2.9,0.9-4.5,0.9C64.2,42.1,59,37,59,30.7v-2.6c0-6.3,5.2-11.4,11.5-11.4
	c6.3,0,11.5,5.1,11.5,11.4v17.2h3.2L85.2,27.6L85.2,27.6z"/>
<path fill="#33C066" d="M53.5,22.2c0.3,0.1,0.5,0.1,0.8,0.2c0.4-1,1-2,1.5-2.8c-0.5-0.2-1.1-0.4-1.4-0.4c-0.9-0.3-1.9-0.4-2.8-0.4
	c-5.5,0-9.6,4.1-9.6,9.5v17.2h3.2V28.2c0-3.7,2.7-6.3,6.4-6.3C52.2,21.9,52.8,22,53.5,22.2L53.5,22.2z M56.8,18.1
	c0.8-1,1.6-1.8,2.2-2.4c-0.5-0.3-1.5-0.7-3.2-1.4l-0.1,0c-1.3-0.4-2.8-0.6-4.2-0.6c-8.5,0-14.7,6.1-14.7,14.5v17.2H40V28.2
	c0-6.7,4.7-11.4,11.5-11.4c1.1,0,2.2,0.2,3.2,0.5C55.5,17.5,56.3,17.8,56.8,18.1"/>
<path fill="#33C066" d="M19.4,15.3c5.1,0,8.8,0.9,10.5,2.5l0.1-0.1v-3.7c-2.5-1.3-6-1.9-10.6-1.9c-7.8,0-14.3,6.4-14.3,14v0.9
	c0,7.6,6.3,14,13.7,14c6.3,0,8.9-2.2,9.1-2.4l0.5-0.5v-8.9h-9.8v3l6.6,0v4.4c-0.9,0.5-2.9,1.3-6.4,1.3c-5.7,0-10.5-5-10.5-10.9v-0.9
	C8.3,20.3,13.4,15.3,19.4,15.3 M18.7,27.5h11.5V39c-1,1-4.4,4-11.5,4c-8.4,0-15.5-7.3-15.5-15.9v-0.9c0-8.6,7.4-15.9,16.2-15.9
	c4.2,0,7.9,0.7,10.6,2V8.9c-2.9-1.1-6.6-1.7-10.6-1.7C8.9,7.1,0,15.9,0,26.2v0.9c0,10.3,8.6,19,18.8,19c10.2,0,14.2-5.4,14.4-5.6
	l0.3-0.4V24.3H18.7V27.5z"/>
</svg>
